<svg height="128" width="128" xmlns="http://www.w3.org/2000/svg"><defs><linearGradient id="e" x1="0" y1="1" x2="0" y2="0"><stop offset="0" stop-color="#ff7a18"/><stop offset="0.55" stop-color="#ff3d3d"/><stop offset="1" stop-color="#ffe27a"/></linearGradient></defs><rect width="128" height="128" rx="20" fill="#14101a"/><path d="M64 20 C 78 42 86 52 86 72 C 86 96 76 108 64 108 C 52 108 42 96 42 72 C 42 52 50 42 64 20 Z" fill="url(#e)"/><path d="M64 44 C 70 56 74 62 74 76 C 74 90 70 98 64 98 C 58 98 54 90 54 76 C 54 62 58 56 64 44 Z" fill="#ffd56b"/></svg>